<svg width="251" height="42" viewBox="0 0 251 42" fill="none" xmlns="http://www.w3.org/2000/svg">
    <path d="M250.313 11.6082L237.075 1.23349C236.253 0.589277 235.238 0.239199 234.194 0.2392L16.806 0.239199C15.7616 0.2392 14.7473 0.589279 13.9253 1.23349L0.68717 11.6082C0.258964 11.8863 0 12.366 0 12.8812V29.1188C0 29.6339 0.258965 30.1137 0.68717 30.3918L13.9253 40.7665C14.7473 41.4107 15.7616 41.7608 16.806 41.7608H234.194C235.238 41.7608 236.253 41.4107 237.075 40.7665L250.313 30.3918C250.741 30.1137 251 29.6339 251 29.1188V12.8812C251 12.366 250.741 11.8863 250.313 11.6082Z" fill="#FFC928"/>
</svg>