<?xml version="1.0" encoding="utf-8"?><svg xmlns="http://www.w3.org/2000/svg" xmlns:xlink="http://www.w3.org/1999/xlink"><symbol fill="none" viewBox="0 0 92 100" id="a1" xmlns="http://www.w3.org/2000/svg"><path d="M44.049.57L1.664 27.639A3.597 3.597 0 000 30.669v38.662c0 1.226.627 2.368 1.664 3.03l42.385 27.07c1.189.759 2.713.759 3.902 0l42.385-27.07A3.597 3.597 0 0092 69.331V30.668a3.597 3.597 0 00-1.664-3.03L47.951.569a3.627 3.627 0 00-3.902 0z" fill="#FFC928"/><path d="M64.91 51.88l-3.28-10.494a3.535 3.535 0 001.825-2.01h1.373a1.172 1.172 0 000-2.345h-1.373a3.521 3.521 0 00-3.314-2.343c-1.528 0-2.83.98-3.314 2.343h-2.498a2.742 2.742 0 00-2.079-1.534v-2.763A2.737 2.737 0 0049.516 30h-8.594a2.737 2.737 0 00-2.734 2.734v4.297h-3.015a3.521 3.521 0 00-3.314-2.343c-1.527 0-2.83.98-3.314 2.343h-1.373a1.172 1.172 0 000 2.344h1.373a3.534 3.534 0 001.824 2.011L27.09 51.88A1.171 1.171 0 0026 53.047v1.562c0 3.231 2.628 5.86 5.86 5.86 3.23 0 5.859-2.629 5.859-5.86v-1.562c0-.62-.482-1.126-1.09-1.168l-3.28-10.493a3.534 3.534 0 001.824-2.011h3.014v3.326c0 2.284.83 4.44 2.344 6.125v2.336a1.171 1.171 0 00-.781 1.104v16.562c0 .647.525 1.172 1.172 1.172h10.156c.647 0 1.172-.525 1.172-1.172V52.266c0-.51-.326-.943-.781-1.104V48.77l2.868-3.585c.166-.208.257-.466.257-.732v-5.078h2.233a3.535 3.535 0 001.824 2.011L55.37 51.88a1.171 1.171 0 00-1.09 1.168v1.562c0 3.231 2.629 5.86 5.86 5.86 3.23 0 5.859-2.629 5.859-5.86v-1.562c0-.62-.481-1.126-1.09-1.168zM31.86 37.03a1.173 1.173 0 010 2.344 1.173 1.173 0 01-1.172-1.172c0-.646.525-1.172 1.171-1.172zm3.515 17.578a3.52 3.52 0 01-3.516 3.516 3.52 3.52 0 01-3.515-3.516v-.39h7.031v.39zm-5.828-2.734l2.312-7.4 2.313 7.4h-4.625zm30.594-14.844c.646 0 1.172.526 1.172 1.172 0 .646-.526 1.172-1.172 1.172a1.173 1.173 0 01-1.172-1.172c0-.646.526-1.172 1.172-1.172zm-19.61-4.297c0-.215.175-.39.39-.39h8.595c.215 0 .39.175.39.39v2.735h-3.125a3.13 3.13 0 00-2.896 1.953h-2.182a1.173 1.173 0 01-1.172-1.172v-3.516zm9.375 34.922h-7.812V53.437h7.812v14.22zm2.344-23.614l-2.868 3.585a1.171 1.171 0 00-.257.732v2.735h-6.25v-2.735c0-.31-.123-.608-.343-.828a6.786 6.786 0 01-2-4.83v-3.137c.366.13.76.202 1.171.202h2.182a3.134 3.134 0 002.437 1.92 6.21 6.21 0 00-1.103 3.548 1.172 1.172 0 102.343 0c0-1.48.823-2.812 2.148-3.474l.33-.165a1.172 1.172 0 00-.524-2.22H46.78a.782.782 0 010-1.563h5.078c.216 0 .391.176.391.391v5.839zm7.89.434l2.313 7.399h-4.625l2.313-7.4zm3.516 10.133a3.52 3.52 0 01-3.515 3.516 3.52 3.52 0 01-3.516-3.516v-.39h7.031v.39z" fill="#fff"/></symbol><symbol fill="none" viewBox="0 0 92 100" id="a2" xmlns="http://www.w3.org/2000/svg"><path d="M44.049.57L1.664 27.639A3.597 3.597 0 000 30.669v38.662c0 1.226.627 2.368 1.664 3.03l42.385 27.07c1.189.759 2.713.759 3.902 0l42.385-27.07A3.597 3.597 0 0092 69.331V30.668a3.597 3.597 0 00-1.664-3.03L47.951.569a3.627 3.627 0 00-3.902 0z" fill="#FFC928"/><path d="M65.91 63.676a1.172 1.172 0 00-1.082-.723h-1.18c0-5.834-4.745-10.58-10.58-10.58a10.53 10.53 0 00-3.531.607V37.048h1.18a1.172 1.172 0 00.828-2.001l-4.703-4.704a1.172 1.172 0 00-1.658 0l-4.703 4.704a1.172 1.172 0 00.828 2h1.18v8.9a10.567 10.567 0 00-3.532-.606 3.536 3.536 0 01-3.532-3.532v-1.262h1.155a1.172 1.172 0 00.828-2.001l-4.704-4.704a1.172 1.172 0 00-1.657 0l-4.704 4.704a1.172 1.172 0 00.829 2h1.192l.013 1.27c.004 5.83 4.749 10.573 10.58 10.573a3.536 3.536 0 013.532 3.531v12.908c0 .647.525 1.172 1.172 1.172h4.704c.647 0 1.172-.525 1.172-1.172v-5.876a3.536 3.536 0 013.532-3.531 3.536 3.536 0 013.532 3.532h-1.18a1.172 1.172 0 00-.83 2l4.705 4.704a1.169 1.169 0 001.657 0l4.704-4.704c.335-.335.435-.839.254-1.277zM46.014 32.829l1.947 1.947a1.173 1.173 0 00-.767 1.1v13.402a10.623 10.623 0 00-2.36-2.156V35.876c0-.505-.32-.935-.767-1.1l1.947-1.947zm-7.056 17.216c-4.541 0-8.236-3.695-8.236-8.236v-.012l-.025-2.434a1.173 1.173 0 00-.767-1.088l1.947-1.947 1.953 1.954c-.438.17-.748.595-.748 1.093v2.434a5.882 5.882 0 005.876 5.876c3.944 0 7.3 2.787 8.07 6.588a10.664 10.664 0 00-2.194 2.047v-.4a5.882 5.882 0 00-5.876-5.875zM60.124 67.17l-1.946-1.946c.448-.165.767-.596.767-1.1v-1.172a5.882 5.882 0 00-5.876-5.876 5.882 5.882 0 00-5.876 5.876v4.703h-2.36v-4.704c0-4.54 3.695-8.235 8.236-8.235s8.236 3.694 8.236 8.236v1.172c0 .504.319.934.766 1.1l-1.947 1.946z" fill="#fff"/></symbol><symbol fill="none" viewBox="0 0 92 100" id="a3" xmlns="http://www.w3.org/2000/svg"><path d="M44.049.57L1.664 27.639A3.597 3.597 0 000 30.669v38.662c0 1.226.627 2.368 1.664 3.03l42.385 27.07c1.189.759 2.713.759 3.902 0l42.385-27.07A3.597 3.597 0 0092 69.331V30.668a3.597 3.597 0 00-1.664-3.03L47.951.569a3.627 3.627 0 00-3.902 0z" fill="#FFC928"/><path d="M39.634 38.749c0-.705.572-1.276 1.278-1.276h8.932a1.277 1.277 0 110 2.552h-8.932a1.277 1.277 0 01-1.278-1.276zM39.634 45.694c0-.705.572-1.276 1.278-1.276h8.932a1.277 1.277 0 110 2.552h-8.932a1.277 1.277 0 01-1.278-1.276zM39.634 52.639c0-.705.572-1.276 1.278-1.276h8.932a1.277 1.277 0 110 2.552h-8.932a1.277 1.277 0 01-1.278-1.276zM34.377 37.336c-.668 0-1.309.587-1.278 1.276.031.692.562 1.276 1.278 1.276.668 0 1.309-.587 1.278-1.276-.031-.691-.562-1.276-1.278-1.276zM34.377 44.418c-.668 0-1.309.587-1.278 1.276.031.691.562 1.276 1.278 1.276.668 0 1.309-.587 1.278-1.276-.031-.692-.562-1.276-1.278-1.276zM34.377 51.5c-.668 0-1.309.586-1.278 1.276.031.69.562 1.276 1.278 1.276.668 0 1.309-.587 1.278-1.276-.031-.692-.562-1.277-1.278-1.277zM34.377 58.581c-.668 0-1.309.587-1.278 1.276.031.691.562 1.276 1.278 1.276.668 0 1.309-.587 1.278-1.276-.031-.691-.562-1.276-1.278-1.276z" fill="#fff"/><path d="M68.542 55.232a1.275 1.275 0 00.16-1.797 1.279 1.279 0 00-1.8-.16l-.317.264a9.369 9.369 0 00-8.126-3.606V28H26v43h32.46v-2.396c.236.018.475.027.716.027 5.17 0 9.375-4.2 9.375-9.362 0-1.23-.24-2.405-.673-3.483l.664-.554zM28.555 68.448V30.552h27.349v19.943c-3.274 1.221-5.686 4.22-6.055 7.813h-8.937a1.277 1.277 0 100 2.552h9.024c.57 3.311 2.888 6.034 5.968 7.183v.405H28.555zm37.44-9.18c0 3.756-3.059 6.811-6.82 6.811-3.76 0-6.82-3.055-6.82-6.81 0-3.755 3.06-6.81 6.82-6.81a6.816 6.816 0 015.448 2.718l-5.308 4.432-2.825-2.263a1.279 1.279 0 00-1.796.197 1.275 1.275 0 00.197 1.794l4.458 3.57 6.424-5.363a6.78 6.78 0 01.222 1.725z" fill="#fff"/></symbol><symbol fill="none" viewBox="0 0 92 100" id="a4" xmlns="http://www.w3.org/2000/svg"><path d="M44.049.57L1.664 27.639A3.597 3.597 0 000 30.669v38.662c0 1.226.627 2.368 1.664 3.03l42.385 27.07c1.189.759 2.713.759 3.902 0l42.385-27.07A3.597 3.597 0 0092 69.331V30.668a3.597 3.597 0 00-1.664-3.03L47.951.569a3.627 3.627 0 00-3.902 0z" fill="#FFC928"/><path d="M64.68 34.701c-4.247-4.324-11.887-4.327-16.137-.006l-1.975 1.874-2.208-2.158c-4.656-4.548-12.23-4.548-16.886 0-4.632 4.343-4.632 12.157 0 16.5l.224.218-.438.427c-1.666 1.562-1.665 4.372 0 5.934l.039.037c.8.782 1.86 1.216 2.99 1.228a4.12 4.12 0 001.257 2.922l.038.037a4.315 4.315 0 003.058 1.229 4.12 4.12 0 001.255 2.858l.038.037c1.6 1.628 4.475 1.628 6.074 0l.574-.562 2.571 2.512c1.654 1.616 4.345 1.616 5.998 0a4.082 4.082 0 001.24-2.867c2.197.01 4.137-1.844 4.17-3.993 3.137-.033 5.033-3.475 3.354-6.052l4.737-4.377c4.453-4.146 4.464-11.638.026-15.798zM31.545 55.743c-.637.65-1.784.65-2.422 0l-.038-.037c-.664-.623-.664-1.743 0-2.366l2.371-2.317a1.743 1.743 0 012.422 0l.038.038a1.648 1.648 0 010 2.366l-2.371 2.316zm4.285 4.188c-.637.649-1.784.649-2.421 0l-.038-.038c-.664-.623-.664-1.743 0-2.366l3.875-3.786c.638-.65 1.784-.65 2.422 0l.038.037c.664.623.664 1.744 0 2.366l-3.876 3.787zm5.889 2.621l-1.537 1.502c-.638.649-1.784.649-2.422 0l-.038-.038c-.664-.622-.664-1.743 0-2.366l1.537-1.501c.638-.65 1.784-.65 2.422 0l.038.037c.664.623.664 1.743 0 2.366zm15.81-4.563a1.483 1.483 0 01-2.06 0l-2.562-2.502a1.313 1.313 0 00-1.826 0 1.241 1.241 0 000 1.784l2.418 2.362c1.492 1.585-.727 3.751-2.347 2.294l-2.405-2.35a1.313 1.313 0 00-1.826 0 1.241 1.241 0 000 1.783l2.393 2.338c.004.005.007.01.012.013a1.597 1.597 0 010 2.293c-.647.633-1.7.632-2.347 0l-2.695-2.633c.904-1.577.597-3.704-.74-4.97l-.038-.036a4.295 4.295 0 00-1.52-.96c1.218-1.599 1.022-4.022-.455-5.411l-.038-.037c-1.188-1.193-3.113-1.558-4.674-.914a4.153 4.153 0 00-1.078-1.767l-.038-.037c-1.674-1.635-4.398-1.635-6.073 0l-.108.106-.224-.219a9.006 9.006 0 010-12.93c3.65-3.565 9.586-3.565 13.235 0l2.182 2.132-4.139 3.928c-1.848 1.675-1.873 4.752-.054 6.456 1.807 1.766 4.747 1.766 6.554 0l1.427-1.395a.117.117 0 01.163 0l8.862 8.66c.565.53.565 1.483 0 2.013zm5.336-9.311l-4.705 4.347-7.668-7.492c-1.004-1.022-2.81-1.022-3.815 0l-1.427 1.395c-.8.782-2.102.782-2.902 0-.806-.756-.794-2.117.026-2.86l7.974-7.57c8.615-7.78 20.44 3.738 12.517 12.18z" fill="#fff"/></symbol><symbol fill="none" viewBox="0 0 92 100" id="a5" xmlns="http://www.w3.org/2000/svg"><path d="M44.049.57L1.664 27.639A3.597 3.597 0 000 30.669v38.662c0 1.226.627 2.368 1.664 3.03l42.385 27.07c1.189.759 2.713.759 3.902 0l42.385-27.07A3.597 3.597 0 0092 69.331V30.668a3.597 3.597 0 00-1.664-3.03L47.951.569a3.627 3.627 0 00-3.902 0z" fill="#FFC928"/><path d="M64.828 51.964h-.781v-1.335a5.578 5.578 0 00-4.375-5.45v-9c0-.605-.46-1.117-1.065-1.172-.092-.008-31.448-.011-31.577.004-.58.071-1.02.56-1.029 1.15 0 .012-.005 22.629.005 22.736.044.523.43.96.953 1.057.17.031-1.332.02 24.12.02v3.848c0 .65.524 1.178 1.171 1.178h12.578c.647 0 1.172-.527 1.172-1.178v-10.68c0-.65-.525-1.178-1.172-1.178zm-3.125-1.335v1.335h-6.406v-1.335a3.215 3.215 0 013.203-3.22 3.215 3.215 0 013.203 3.22zm-9.153 1.335l-5.06-4.476 9.838-8.703v6.395a5.578 5.578 0 00-4.375 5.449v1.335h-.403zm2.845-14.606L42.873 48.433 30.29 37.358h25.105zm-27.05 1.419l9.896 8.71-9.897 8.712V38.777zm1.945 18.841l9.73-8.565 2.083 1.834c.442.39 1.104.39 1.546-.002l2.067-1.828 5.362 4.743v3.818H30.29zm33.366 5.026H53.422V54.32h10.234v8.324z" fill="#fff"/></symbol><symbol fill="none" viewBox="0 0 16 10" id="arrow2" xmlns="http://www.w3.org/2000/svg"><path d="M9.667 1L14 5m0 0L9.667 9M14 5H1" stroke="#fff" stroke-width="2" stroke-linecap="round"/></symbol><symbol fill="none" viewBox="0 0 10 7" id="ars" xmlns="http://www.w3.org/2000/svg"><path d="M1 1l4 4.333L9 1" stroke="#FFC928" stroke-width="2" stroke-linecap="round"/></symbol><symbol fill="none" viewBox="0 0 120 124" id="comment" xmlns="http://www.w3.org/2000/svg"><g filter="url(#hfilter0_d)"><path d="M59.152 40.248L40.723 52.017c-.45.288-.723.784-.723 1.318v16.809c0 .533.273 1.03.723 1.317l18.429 11.77c.517.33 1.18.33 1.696 0l18.429-11.77c.45-.287.723-.784.723-1.317v-16.81c0-.533-.273-1.03-.723-1.317l-18.429-11.77a1.577 1.577 0 00-1.696 0z" fill="#FBFBFB"/></g><path d="M61.49 68l2.787-7.5H61.49V56H67v4.5c-.577 1.14-1.388 2.66-2.435 4.56-1.046 1.9-1.602 2.88-1.666 2.94h-1.41zM53 68l2.787-7.5H53V56h5.51v4.5c-.576 1.14-1.388 2.66-2.434 4.56-1.047 1.9-1.602 2.88-1.666 2.94H53z" fill="#FFC928"/><defs><filter id="hfilter0_d" x="0" y="0" width="120" height="123.478" filterUnits="userSpaceOnUse" color-interpolation-filters="sRGB"><feFlood flood-opacity="0" result="BackgroundImageFix"/><feColorMatrix in="SourceAlpha" values="0 0 0 0 0 0 0 0 0 0 0 0 0 0 0 0 0 0 127 0"/><feOffset/><feGaussianBlur stdDeviation="20"/><feColorMatrix values="0 0 0 0 0 0 0 0 0 0 0 0 0 0 0 0 0 0 0.1 0"/><feBlend in2="BackgroundImageFix" result="effect1_dropShadow"/><feBlend in="SourceGraphic" in2="effect1_dropShadow" result="shape"/></filter></defs></symbol><symbol fill="none" viewBox="0 0 30 33" id="geo" xmlns="http://www.w3.org/2000/svg"><path d="M14.364.186L.543 9.05c-.339.217-.543.59-.543.992V22.7c0 .401.204.775.543.992l13.82 8.862c.389.249.886.249 1.273 0l13.822-8.862c.338-.217.542-.59.542-.992V10.04c0-.401-.204-.775-.543-.992L15.637.186a1.179 1.179 0 00-1.273 0z" fill="#FFC928"/><path d="M15 8c-3.314 0-6 2.782-6 6.213C9 17.645 13.089 24 15 24c1.911 0 6-6.355 6-9.787C21 10.782 18.314 8 15 8zm0 9.061c-1.744 0-3.158-1.464-3.158-3.27 0-1.807 1.414-3.271 3.158-3.271s3.158 1.464 3.158 3.27c0 1.807-1.414 3.271-3.158 3.271z" fill="#fff"/></symbol><symbol fill="none" viewBox="0 0 30 33" id="mail" xmlns="http://www.w3.org/2000/svg"><path d="M14.364.186L.543 9.05c-.339.217-.543.59-.543.992V22.7c0 .401.204.775.543.992l13.82 8.862c.389.249.886.249 1.273 0l13.822-8.862c.338-.217.542-.59.542-.992V10.04c0-.401-.204-.775-.543-.992L15.637.186a1.179 1.179 0 00-1.273 0z" fill="#FFC928"/><path d="M15.405 17.715a.803.803 0 01-.413.112.803.803 0 01-.414-.112L8 13.82v5.177C8 20.103 8.926 21 10.066 21h9.868c1.14 0 2.066-.897 2.066-2.003V13.82l-6.595 3.895z" fill="#fff"/><path d="M19.934 11h-9.868c-.975 0-1.802.673-2 1.57l6.942 4.103 6.926-4.102c-.199-.898-1.025-1.571-2-1.571z" fill="#fff"/></symbol><symbol fill="none" viewBox="0 0 69 75" id="s1" xmlns="http://www.w3.org/2000/svg"><path d="M33.037.427L1.247 20.73A2.698 2.698 0 000 23.002v28.996c0 .92.47 1.776 1.248 2.273l31.789 20.302a2.72 2.72 0 002.926 0l31.79-20.302A2.698 2.698 0 0069 51.998V23.002c0-.92-.47-1.776-1.248-2.273L35.963.427a2.72 2.72 0 00-2.926 0z" fill="#FFC928"/><g clip-path="url(#kclip0)" fill="#fff"><path d="M45.553 30.639v-3.075h-1.758v3.075h-2.19V24l-14.21 3.343v3.296h-2.19v-3.075h-1.758v3.075H19.5v21.403h30V30.638h-3.947zM21.258 50.284V32.396h6.137v17.888h-6.137zm14.12 0h-1.757v-1.758h1.758v1.758zm4.47 0h-2.711V46.77h-5.274v3.515h-2.71V28.735l10.695-2.516v24.065zm7.894 0h-6.137V32.396h6.137v17.888z"/><path d="M30.91 30.948h2.711v1.758h-2.71v-1.758zM35.379 30.948h2.71v1.758h-2.71v-1.758zM30.91 34.464h2.711v1.758h-2.71v-1.758zM35.379 34.464h2.71v1.758h-2.71v-1.758zM30.91 37.98h2.711v1.757h-2.71V37.98zM35.379 37.98h2.71v1.757h-2.71V37.98zM30.91 41.495h2.711v1.758h-2.71v-1.758zM22.97 34.464h2.712v1.758H22.97v-1.758zM22.97 37.98h2.712v1.757H22.97V37.98zM22.97 41.495h2.712v1.758H22.97v-1.758zM43.318 34.464h2.711v1.758h-2.71v-1.758zM43.318 37.98h2.711v1.757h-2.71V37.98zM43.318 41.495h2.711v1.758h-2.71v-1.758zM22.97 45.01h2.712v1.759H22.97V45.01zM43.318 45.01h2.711v1.759h-2.71V45.01zM35.379 41.495h2.71v1.758h-2.71v-1.758z"/></g><defs><clipPath id="kclip0"><path fill="#fff" transform="translate(19.5 22.5)" d="M0 0h30v30H0z"/></clipPath></defs></symbol><symbol fill="none" viewBox="0 0 69 75" id="s2" xmlns="http://www.w3.org/2000/svg"><path d="M33.037.427L1.247 20.73A2.698 2.698 0 000 23.002v28.996c0 .92.47 1.776 1.248 2.273l31.789 20.302a2.72 2.72 0 002.926 0l31.79-20.302A2.698 2.698 0 0069 51.998V23.002c0-.92-.47-1.776-1.248-2.273L35.963.427a2.72 2.72 0 00-2.926 0z" fill="#FFC928"/><path d="M47.055 35.226h-1.384V22.902A.902.902 0 0044.77 22H20.902a.902.902 0 00-.902.902v23.1a3.016 3.016 0 002.972 3.005h5.277v2.753c0 .498.404.901.902.901h19.947A.902.902 0 0050 51.76V38.172a2.948 2.948 0 00-2.945-2.946zM21.804 23.804h22.064v11.422h-16.76-.005a2.937 2.937 0 00-2.943 2.858v7.918c0 .652-.53 1.19-1.18 1.201a1.206 1.206 0 01-1.176-1.201V23.804zm3.907 23.4c.16-.364.252-.779.252-1.202v-7.896a1.14 1.14 0 011.145-1.076c.63 0 1.141.512 1.141 1.142v9.032h-2.538zm22.485 3.654H30.053V38.172c0-.397-.082-.79-.23-1.142h17.232c.63 0 1.141.512 1.141 1.142v12.686z" fill="#fff"/><path d="M24.665 28.137h.919v3.523a.902.902 0 001.803 0v-3.523h.92a.902.902 0 000-1.803h-3.642a.902.902 0 000 1.803zM30.754 32.562a.902.902 0 00.902-.902v-.522h1.837v.522a.902.902 0 001.804 0v-2.604a2.725 2.725 0 00-2.722-2.722 2.725 2.725 0 00-2.723 2.722v2.604c0 .498.404.902.902.902zm1.82-4.425a.92.92 0 01.92.92v.278h-1.838v-.279a.92.92 0 01.919-.919zM36.792 32.357a.902.902 0 001.27-.124l1.124-1.366 1.124 1.366a.902.902 0 101.393-1.146l-1.35-1.64 1.35-1.639a.902.902 0 10-1.393-1.145l-1.124 1.366-1.124-1.366a.902.902 0 00-1.393 1.145l1.349 1.64-1.35 1.64a.902.902 0 00.124 1.269zM39.158 40.938h-6.212a.902.902 0 100 1.803h6.212a.902.902 0 000-1.803zM39.158 45.267h-6.212a.902.902 0 100 1.803h6.212a.902.902 0 100-1.803zM45.912 40.938h-3.046a.902.902 0 000 1.803h3.046a.902.902 0 000-1.803zM45.912 45.267h-3.046a.902.902 0 000 1.803h3.046a.902.902 0 100-1.803z" fill="#fff"/></symbol><symbol fill="none" viewBox="0 0 69 75" id="s3" xmlns="http://www.w3.org/2000/svg"><path d="M33.037.427L1.247 20.73A2.698 2.698 0 000 23.002v28.996c0 .92.47 1.776 1.248 2.273l31.789 20.302a2.72 2.72 0 002.926 0l31.79-20.302A2.698 2.698 0 0069 51.998V23.002c0-.92-.47-1.776-1.248-2.273L35.963.427a2.72 2.72 0 00-2.926 0z" fill="#FFC928"/><path d="M49.127 27.516H41.152v-.88A2.64 2.64 0 0038.516 24h-7.032a2.64 2.64 0 00-2.636 2.637v.879h-7.97a.881.881 0 00-.878.879V47.73a2.64 2.64 0 002.637 2.637h24.726A2.64 2.64 0 0050 47.731V28.412v-.003c-.034-.578-.389-.89-.873-.894zm-18.522-.88a.88.88 0 01.88-.878h7.03a.88.88 0 01.88.879v.879h-8.79v-.88zm17.297 2.637l-2.73 8.189a.877.877 0 01-.833.6h-4.944v-.878a.879.879 0 00-.88-.88h-7.03a.879.879 0 00-.88.88v.879h-4.944a.877.877 0 01-.833-.602l-2.73-8.188h25.804zm-10.265 8.79v1.757h-5.274v-1.758h5.274zm10.605 9.667a.88.88 0 01-.879.88H22.637a.88.88 0 01-.88-.88V33.81l1.403 4.207a2.633 2.633 0 002.501 1.803h4.944v.88c0 .485.394.878.88.878h7.03a.879.879 0 00.88-.879v-.879h4.944a2.633 2.633 0 002.5-1.803l1.403-4.206v13.92z" fill="#fff"/></symbol><symbol fill="none" viewBox="0 0 69 75" id="s4" xmlns="http://www.w3.org/2000/svg"><path d="M33.037.427L1.247 20.73A2.698 2.698 0 000 23.002v28.996c0 .92.47 1.776 1.248 2.273l31.789 20.302a2.72 2.72 0 002.926 0l31.79-20.302A2.698 2.698 0 0069 51.998V23.002c0-.92-.47-1.776-1.248-2.273L35.963.427a2.72 2.72 0 00-2.926 0z" fill="#FFC928"/><path d="M20.879 51h15.938a.879.879 0 00.879-.88v-1.874a2.641 2.641 0 00-1.758-2.486v-1.143a2.526 2.526 0 00-2.523-2.524H24.28a2.526 2.526 0 00-2.523 2.524v1.143A2.641 2.641 0 0020 48.246v1.875c0 .485.393.879.879.879zm3.402-7.149h9.134c.422 0 .765.343.765.766v.992H23.516v-.992c0-.422.343-.766.765-.766zm-2.523 4.395a.88.88 0 01.879-.879h12.422a.88.88 0 01.88.879v.996H21.757v-.996zM30.124 39.298a2.64 2.64 0 003.693.52 2.638 2.638 0 001.031-2.418 10.364 10.364 0 002.18-.623l8.23 10.93a2.64 2.64 0 003.692.521 2.64 2.64 0 00.52-3.692l-8.228-10.93a10.39 10.39 0 001.2-1.923 2.638 2.638 0 003.13-4.016l-4.229-5.617a2.64 2.64 0 00-3.692-.52 2.638 2.638 0 00-1.032 2.418 10.35 10.35 0 00-7.593 5.716 2.636 2.636 0 00-3.13 4.016l4.228 5.618zm9.896-4.392l1.174 1.559-1.405 1.057-1.173-1.559c.497-.312.967-.666 1.404-1.057zm7.873 11.918a.88.88 0 01-1.231-.174l-5.815-7.724 1.404-1.057 5.815 7.724a.88.88 0 01-.173 1.23zm-9.185-23.89a.88.88 0 011.231.173l4.229 5.618a.88.88 0 01-1.404 1.057l-4.23-5.618a.88.88 0 01.174-1.23zm-1.286 2.675l3.646 4.843a8.61 8.61 0 01-7.022 5.286L30.4 30.896a8.602 8.602 0 017.022-5.287zm-9.949 5.783a.878.878 0 011.23.174l4.23 5.617a.88.88 0 01-1.404 1.057l-4.23-5.617a.879.879 0 01.174-1.231z" fill="#fff"/></symbol><symbol fill="none" viewBox="0 0 69 75" id="s5" xmlns="http://www.w3.org/2000/svg"><path d="M33.037.427L1.247 20.73A2.698 2.698 0 000 23.002v28.996c0 .92.47 1.776 1.248 2.273l31.789 20.302a2.72 2.72 0 002.926 0l31.79-20.302A2.698 2.698 0 0069 51.998V23.002c0-.92-.47-1.776-1.248-2.273L35.963.427a2.72 2.72 0 00-2.926 0z" fill="#FFC928"/><path d="M51.689 27.574a.73.73 0 00-.667-.087l-5.945 2.14c-.737.266-1.323.8-1.652 1.505-.061.132-.102.27-.142.407-1.02-.288-2.918-.888-4.803-1.85-2.849-1.452-5.025-.735-6.892.675-.946.018-2.25.13-3.53.24-.818.072-1.59.138-2.217.176a2.883 2.883 0 00-1.918-2.596l-5.945-2.14a.734.734 0 00-.667.086.72.72 0 00-.311.592v14.437c0 .4.326.722.73.722h2.129c.906 0 1.749-.423 2.293-1.106.29.219.634.475.995.742.85.634 1.782 1.326 2.19 1.665 2.716 2.25 5.98 4.68 6.63 5.103.608.395 1.701.815 2.533.815.325 0 1.145 0 1.72-.482.594.231 1.233.22 1.828-.04a2.72 2.72 0 001.352-1.34c.57.116 1.224.032 1.817-.263.556-.276.966-.693 1.185-1.18.527.047 1.09-.123 1.593-.504.72-.544 1.049-1.348.955-2.141l1.85-1.013a2.93 2.93 0 002.341 1.188h2.13c.403 0 .729-.323.729-.722V28.166a.72.72 0 00-.311-.592zM21.225 39.501c-.212.56-.761.937-1.366.937h-1.4V27.752l4.965 1.787a1.444 1.444 0 01.868 1.864L21.225 39.5zm21.885 4.643c-.247.188-.593.292-.747.14-.008-.008-.02-.007-.028-.015-.014-.012-.021-.03-.036-.042-.521-.407-2.857-2.773-4.3-4.263a.732.732 0 00-1.03-.022.715.715 0 00-.023 1.02c.339.35 3.059 3.154 4.147 4.135-.081.317-.378.513-.529.587-.467.232-.954.194-1.136.026-.006-.005-.014-.005-.02-.01-.008-.008-.012-.019-.022-.026-.874-.692-3.068-3-3.564-3.534a.734.734 0 00-1.03-.043.717.717 0 00-.044 1.02c.024.026 2.174 2.322 3.381 3.388-.118.338-.36.617-.67.753-.23.1-.587.152-.996-.147-1.048-.879-3.149-3.094-3.562-3.531a.734.734 0 00-1.03-.035.717.717 0 00-.036 1.02c.49.52 1.939 2.039 3.04 3.068a3.189 3.189 0 01-.375.023c-.483 0-1.312-.305-1.732-.578-.511-.333-3.721-2.704-6.493-5.002-.42-.348-1.377-1.061-2.252-1.712-.47-.35-.902-.671-1.221-.914l2.73-7.208a67.61 67.61 0 002.653-.2c.566-.049 1.132-.097 1.673-.138-.832.845-2.068 2.358-1.905 3.777.075.646.432 1.184 1.033 1.556 1.192.738 3.397.12 4.46-1.175a5.107 5.107 0 001.654-.519c.855.795 2 1.73 3.204 2.712 2.095 1.709 4.47 3.646 5.098 4.732.35.605-.136 1.039-.292 1.157zm1.25-2.321c-.97-1.287-3.077-3.008-5.129-4.683-1.368-1.115-2.66-2.17-3.486-2.988a.738.738 0 00-.86-.126c-.742.394-1.077.557-1.916.64a.73.73 0 00-.544.334c-.572.898-2.161 1.325-2.665 1.013-.287-.177-.342-.358-.358-.495-.07-.614.558-1.678 1.6-2.71 2.58-2.554 4.424-3.053 6.81-1.835 2.267 1.157 4.505 1.811 5.444 2.058.027.108.047.218.087.324l2.83 7.475-1.812.993zm6.182.058h-1.4a1.465 1.465 0 01-1.367-.937l-3.067-8.096a1.443 1.443 0 01.867-1.864l4.967-1.788v12.685z" fill="#fff"/></symbol><symbol fill="none" viewBox="0 0 20 16" id="soc1" xmlns="http://www.w3.org/2000/svg"><path d="M19.2 2.152a7.926 7.926 0 01-2.174.59 3.72 3.72 0 001.66-2.064c-.73.43-1.534.734-2.392.904A3.798 3.798 0 0013.539.4c-2.089 0-3.77 1.678-3.77 3.735 0 .296.025.58.087.852A10.713 10.713 0 012.081 1.08a3.73 3.73 0 00-.516 1.887A3.73 3.73 0 003.24 6.072a3.754 3.754 0 01-1.704-.46v.04c0 1.816 1.308 3.323 3.022 3.67a3.8 3.8 0 01-.989.123c-.241 0-.485-.014-.714-.064a3.803 3.803 0 003.525 2.602 7.628 7.628 0 01-4.677 1.592 7.13 7.13 0 01-.903-.05A10.698 10.698 0 006.587 15.2c6.941 0 10.736-5.692 10.736-10.626 0-.165-.006-.325-.014-.483A7.483 7.483 0 0019.2 2.152z" fill="#2B2B2B"/></symbol><symbol fill="none" viewBox="0 0 10 18" id="soc2" xmlns="http://www.w3.org/2000/svg"><path d="M9.438.204L7.136.2C4.549.2 2.877 1.9 2.877 4.531v1.997H.562a.36.36 0 00-.362.36V9.78a.36.36 0 00.362.359h2.315v7.301a.36.36 0 00.362.359h3.02c.2 0 .363-.16.363-.359V10.14h2.707c.2 0 .362-.16.362-.359l.001-2.894a.358.358 0 00-.362-.359H6.622V4.835c0-.813.196-1.226 1.265-1.226h1.551c.2 0 .362-.162.362-.36V.562a.36.36 0 00-.362-.358z" fill="#2B2B2B"/></symbol><symbol fill="none" viewBox="0 0 18 18" id="soc3" xmlns="http://www.w3.org/2000/svg"><path d="M4.196 17.4H.423V6.065h3.773V17.4zM2.309 4.517h-.024C1.019 4.517.2 3.647.2 2.559.2 1.446 1.044.6 2.334.6c1.291 0 2.085.846 2.11 1.959 0 1.087-.819 1.958-2.135 1.958zM17.8 17.4h-3.773v-6.064c0-1.524-.546-2.563-1.91-2.563-1.043 0-1.664.7-1.937 1.377-.1.243-.124.581-.124.92v6.33H6.284s.05-10.272 0-11.335h3.772V7.67c.502-.773 1.399-1.871 3.4-1.871 2.483 0 4.344 1.62 4.344 5.101v6.5z" fill="#2B2B2B"/></symbol><symbol fill="none" viewBox="0 0 20 14" id="soc4" xmlns="http://www.w3.org/2000/svg"><path d="M14.293 6h1.908V3.999h1.908v2.004H20v2.004h-1.891v2.004H16.2V8.006h-1.908V6.001zM6.664 0c1.681 0 3.23.622 4.46 1.823L9.32 3.664c-.71-.729-1.681-1.078-2.655-1.078-2.305 0-4.149 2.004-4.149 4.409 0 2.404 1.838 4.408 4.149 4.408 1.751 0 3.487-1.078 3.767-3.008H6.664V5.99h6.282c.07.384.102.768.102 1.168 0 3.997-2.553 6.84-6.384 6.84V14C2.967 14 0 10.867 0 7c0-3.868 2.967-7 6.664-7z" fill="#2B2B2B"/></symbol><symbol fill="none" viewBox="0 0 16 12" id="soc5" xmlns="http://www.w3.org/2000/svg"><path d="M15.86 1.2L11.006 6l4.852 4.8c.088-.183.141-.385.141-.6V1.8c0-.216-.053-.417-.14-.6zM14.594.4H1.406C1.19.4.987.453.804.54l6.202 6.144c.548.545 1.44.545 1.988 0L15.196.54a1.395 1.395 0 00-.602-.14zM.14 1.2c-.087.183-.14.384-.14.6v8.4c0 .215.053.417.14.6L4.994 6 .141 1.2z" fill="#2B2B2B"/><path d="M10.344 6.66l-.687.683c-.914.91-2.4.91-3.314 0l-.687-.683-4.852 4.8c.183.087.386.14.602.14h13.188c.216 0 .419-.053.602-.14l-4.852-4.8z" fill="#2B2B2B"/></symbol><symbol fill="none" viewBox="0 0 30 33" id="tel" xmlns="http://www.w3.org/2000/svg"><path d="M14.364.186L.543 9.05c-.339.217-.543.59-.543.992V22.7c0 .401.204.775.543.992l13.82 8.862c.389.249.886.249 1.273 0l13.822-8.862c.338-.217.542-.59.542-.992V10.04c0-.401-.204-.775-.543-.992L15.637.186a1.179 1.179 0 00-1.273 0z" fill="#FFC928"/><path d="M9.374 15.436c-.212-.57-.365-1.153-.319-1.772.03-.382.173-.707.452-.974.304-.287.59-.588.889-.88.389-.383.877-.38 1.265 0 .24.236.479.476.717.717.23.23.464.461.694.695.406.41.408.888.003 1.296-.292.292-.58.586-.877.872-.078.075-.085.139-.044.233.195.467.476.882.792 1.27.636.782 1.355 1.477 2.213 2.014.184.114.386.199.577.303.1.054.166.037.246-.046.289-.299.585-.592.881-.886.389-.384.875-.386 1.263 0 .476.47.95.944 1.421 1.42.396.399.393.887-.005 1.288-.27.272-.554.529-.806.813-.37.413-.836.549-1.365.52-.772-.041-1.484-.299-2.171-.632a11.815 11.815 0 01-3.918-3.064c-.806-.962-1.471-2.006-1.908-3.187zm11.067.87c.312 0 .569-.254.539-.566a5.955 5.955 0 00-5.35-5.35c-.312-.03-.566.226-.566.539 0 .313.254.562.565.599a4.822 4.822 0 014.213 4.213c.036.31.286.565.599.565zm-2.747-.562c.065.306.312.562.624.562.313 0 .57-.255.524-.564a3.831 3.831 0 00-3.214-3.215c-.31-.046-.564.212-.564.525 0 .312.256.56.562.624.504.106.967.356 1.34.728.372.373.622.836.728 1.34z" fill="#fff"/></symbol></svg>