<?xml version="1.0" encoding="utf-8"?><svg xmlns="http://www.w3.org/2000/svg" xmlns:xlink="http://www.w3.org/1999/xlink"><symbol viewBox="0 0 10 7" id="arrow1" xmlns="http://www.w3.org/2000/svg"><path d="M1 1l4 4.333L9 1"/></symbol><symbol viewBox="0 0 16 10" id="arrow2" xmlns="http://www.w3.org/2000/svg"><path d="M9.667 1L14 5m0 0L9.667 9M14 5H1"/></symbol><symbol viewBox="0 0 14 12" id="comment" xmlns="http://www.w3.org/2000/svg"><path d="M8.49 12l2.787-7.5H8.49V0H14v4.5c-.577 1.14-1.388 2.66-2.435 4.56C10.52 10.96 9.963 11.94 9.9 12H8.49zM0 12l2.787-7.5H0V0h5.51v4.5a154.97 154.97 0 01-2.434 4.56C2.029 10.96 1.474 11.94 1.41 12H0z"/></symbol><symbol viewBox="0 0 12 13" id="tel" xmlns="http://www.w3.org/2000/svg"><path d="M.326 5.436c-.21-.57-.364-1.153-.318-1.772.03-.382.173-.707.452-.974.304-.287.59-.588.889-.88.388-.383.877-.38 1.265 0 .24.236.479.477.717.717.23.23.463.461.694.695.406.41.408.888.003 1.296-.292.292-.58.586-.877.872-.078.076-.085.139-.044.233.194.467.476.882.792 1.27.636.783 1.355 1.477 2.212 2.014.185.114.387.199.578.303.1.054.166.037.246-.046.289-.298.585-.592.881-.886.389-.384.875-.386 1.263 0 .476.47.95.944 1.42 1.42.397.399.394.887-.004 1.288-.27.272-.554.529-.806.813-.37.413-.836.549-1.365.52-.772-.041-1.484-.299-2.171-.632a11.815 11.815 0 01-3.918-3.064C1.43 7.66.764 6.617.326 5.436zm11.068.87c.312 0 .568-.254.539-.565A5.954 5.954 0 006.582.39c-.311-.03-.565.226-.565.539 0 .313.254.562.565.599a4.822 4.822 0 014.213 4.213c.036.31.286.565.599.565zm-2.747-.562c.064.306.312.562.624.562.313 0 .57-.255.524-.564a3.83 3.83 0 00-3.214-3.215c-.31-.046-.564.212-.564.525 0 .312.256.56.562.624.504.106.967.356 1.34.728.372.373.621.836.728 1.34z"/></symbol></svg>