<svg width="1018" height="1112" viewBox="0 0 1018 1112" fill="none" xmlns="http://www.w3.org/2000/svg">
	<mask id="Mask123">
		<path opacity="1" d="M487.409 6.84449L18.4089 307.573C6.93751 314.928 0 327.618 0 341.245V770.755C0 784.382 6.93753 797.072 18.4089 804.427L487.409 1105.16C500.567 1113.59 517.433 1113.59 530.591 1105.16L999.591 804.427C1011.06 797.072 1018 784.382 1018 770.755V341.245C1018 327.618 1011.06 314.928 999.591 307.573L530.591 6.84446C517.433 -1.59245 500.567 -1.59242 487.409 6.84449Z" fill="#fff" />
	</mask>
	<path opacity="0.95" d="M487.409 6.84449L18.4089 307.573C6.93751 314.928 0 327.618 0 341.245V770.755C0 784.382 6.93753 797.072 18.4089 804.427L487.409 1105.16C500.567 1113.59 517.433 1113.59 530.591 1105.16L999.591 804.427C1011.06 797.072 1018 784.382 1018 770.755V341.245C1018 327.618 1011.06 314.928 999.591 307.573L530.591 6.84446C517.433 -1.59245 500.567 -1.59242 487.409 6.84449Z" fill="#2C1B12" />
</svg>
