<svg width="335" height="42" viewBox="0 0 335 42" fill="none" xmlns="http://www.w3.org/2000/svg">
<path d="M334.313 11.6082L321.075 1.23351C320.253 0.589281 319.238 0.239197 318.194 0.239197H16.806C15.7616 0.239197 14.7473 0.589277 13.9253 1.23349L0.68717 11.6082C0.258964 11.8863 0 12.366 0 12.8812V29.1188C0 29.6339 0.258965 30.1137 0.68717 30.3917L13.9253 40.7665C14.7473 41.4107 15.7616 41.7608 16.806 41.7608H318.194C319.238 41.7608 320.253 41.4107 321.075 40.7665L334.313 30.3917C334.741 30.1137 335 29.6339 335 29.1188V12.8812C335 12.366 334.741 11.8863 334.313 11.6082Z" fill="#FFC928"/>
</svg>
